<!--?xml version="1.0" encoding="utf-8"?-->
<!-- Svg Vector Icons : http://www.onlinewebfonts.com/icon -->

<svg version="1.1" xmlns="http://www.w3.org/2000/svg" xmlns:xlink="http://www.w3.org/1999/xlink" x="0px" y="0px" viewBox="0 0 256 256" enable-background="new 0 0 256 256" xml:space="preserve">
<metadata> Svg Vector Icons : http://www.onlinewebfonts.com/icon </metadata>
<g><g><g><path fill="#e90202" data-title="Layer 0" xs="0" d="M89.5,59.1c-8.1,2.1-14.4,5.9-20.1,12c-4.5,4.8-6.8,8.6-8.8,14.4c-1.9,5.7-2.6,11.5-2,18.3c2,23.5,19.8,44.8,50.6,60.5c7.9,4,19,8.7,20.8,8.7c3,0,21.2-8.4,30.6-14.1c12-7.3,24.4-18.3,30.4-27.2c3.8-5.6,7.4-13.1,9-19.4c1.9-7.3,2-17.7,0.3-23.9c-3.9-13.5-13.5-23.7-26.7-28.3c-5.6-1.9-14.2-2.5-20.1-1.5c-7.4,1.3-15.4,5.3-21.1,10.6l-2.3,2.2l-3-2.7c-4-3.6-10.1-7.2-15.3-8.9C105.8,57.9,95.5,57.6,89.5,59.1z"/><path fill="#000000" data-title="Layer 1" xs="1" d="M38,61.5c-2.4,1-4.8,4-7.1,9c-18.5,38.9-20.2,43.4-20.8,55.2c-0.4,7.5,0.1,10.2,4.2,24.9c6.5,23.3,7.9,30.2,8.4,40.5l0.3,6.7l18.6,0.2c10.2,0.1,18.5-0.1,18.5-0.3c0-1.9,1.5-11.3,3.2-20.1c3.4-17.5,3.4-18.1-0.9-29.5c-2.4-6.3-10.8-24.6-12.7-27.5c-1.8-2.6-4.2-3.9-7.5-3.9c-5.2-0.1-8.3,3.3-8.3,9c0,2.7,2.4,13.1,5.4,24.3c0.6,2.2,0.9,4.1,0.6,4.4c-0.3,0.3-1.2,0.6-2.1,0.8l-1.7,0.3l-1.2-4.2c-5.9-21.5-6.8-27.7-4.5-32c1.4-2.7,5.1-5.9,7.2-6.4c0.9-0.2,1.8-0.9,2.1-1.5c0.9-2,10.1-40.8,10.1-42.4c0-2.5-2.2-6.1-4.3-7.2C43.6,60.6,40.3,60.5,38,61.5z"/><path fill="#000000" data-title="Layer 2" xs="2" d="M210.3,61.7c-2.1,1.1-4.3,4.8-4.3,7.3c0,1.7,9.3,41.2,10.1,42.5c0.2,0.4,1.2,1.1,2.1,1.4c2.5,0.9,5.8,3.7,7.1,6.3c2.4,4.6,1.9,8.5-3.4,28.1l-2.2,8.2l-1.7-0.3c-0.9-0.2-1.8-0.5-2-0.7c-0.3-0.3,1-6.1,2.8-13c3.4-13.4,3.8-17.4,2.3-20.6c-1.2-2.6-4.1-4.2-7.4-4.2c-3.4,0-5.8,1.3-7.5,3.8c-1.9,2.9-10.5,21.3-12.8,27.5c-4.3,11.4-4.3,12-0.9,29.5c1.7,8.8,3.2,18.2,3.2,20.1c0,0.3,8.3,0.4,18.6,0.3l18.5-0.2l0.3-6.7c0.5-10.4,2.2-18.4,9-42.7c3.4-12.3,3.9-15.4,3.6-22.4c-0.5-11.4-2.8-18-17.4-48.4c-3-6.2-6.1-12.1-7.1-13.3C218.6,60.8,214,59.7,210.3,61.7z"/></g></g></g>
</svg>